<svg width="18" height="15" viewBox="0 0 18 15" fill="none" xmlns="http://www.w3.org/2000/svg">
<path d="M7.1704 11.9084C8.69028 11.9084 10.1094 11.4981 11.2631 10.8143L15.603 14.4159C15.8044 14.583 16.0699 14.6666 16.3446 14.6666C16.9397 14.6666 17.3701 14.2867 17.3701 13.8004C17.3701 13.5725 17.2785 13.3597 17.0771 13.1925L12.7647 9.60612C13.6711 8.61833 14.2113 7.395 14.2113 6.06529C14.2113 2.85119 11.0434 0.222168 7.1704 0.222168C3.2883 0.222168 0.129517 2.85119 0.129517 6.06529C0.129517 9.27939 3.2883 11.9084 7.1704 11.9084ZM7.1704 10.6471C4.1398 10.6471 1.6494 8.57274 1.6494 6.06529C1.6494 3.55784 4.1398 1.48349 7.1704 1.48349C10.1919 1.48349 12.6914 3.55784 12.6914 6.06529C12.6914 8.57274 10.1919 10.6471 7.1704 10.6471Z" fill="#565656"/>
</svg>
